<svg width="144" height="79" viewBox="0 0 144 79" fill="none" xmlns="http://www.w3.org/2000/svg">
<path d="M1.26959 68.6376H2.25397C3.22272 68.6376 3.80084 68.4032 3.98834 67.9344C4.18626 67.4657 4.28522 65.2209 4.28522 61.2001V55.9032C4.28522 51.7365 4.20188 49.4397 4.03522 49.0126C3.86855 48.5855 3.36855 48.3719 2.53522 48.3719H1.26959V47.3876C2.99876 47.4605 4.70709 47.4969 6.39459 47.4969C7.80084 47.4969 9.07688 47.4605 10.2227 47.3876V48.3719H9.01959C8.28001 48.3719 7.81647 48.4605 7.62897 48.6376C7.44147 48.8147 7.33209 49.2626 7.30084 49.9813C7.24876 51.0959 7.22272 53.0803 7.22272 55.9344V61.3251C7.22272 65.3772 7.31126 67.6115 7.48834 68.0282C7.66543 68.4344 8.23313 68.6376 9.19147 68.6376H10.2227V69.6219C8.94147 69.549 7.54563 69.5126 6.03522 69.5126C4.2748 69.5126 2.68626 69.549 1.26959 69.6219V68.6376ZM14.9649 55.5673V63.6649C14.9649 65.5087 15.0001 66.7938 15.0704 67.5204C15.1251 68.0751 15.2149 68.4149 15.3399 68.5399C15.4727 68.6571 15.8477 68.743 16.4649 68.7977L17.2149 68.8563V69.5946C16.3633 69.5399 15.5938 69.5126 14.9063 69.5126C14.4297 69.5126 13.336 69.5399 11.6251 69.5946V68.8563H12.4688C12.9766 68.8563 13.3087 68.786 13.4649 68.6454C13.6212 68.5048 13.7188 68.2274 13.7579 67.8134C13.8438 66.954 13.8868 65.786 13.8868 64.3094V58.4852C13.8868 57.3915 13.8751 56.3094 13.8516 55.2391C13.836 54.786 13.7735 54.4774 13.6641 54.3134C13.5626 54.1415 13.4102 53.9891 13.2071 53.8563C13.004 53.7235 12.7188 53.6571 12.3516 53.6571H11.6251V52.9188C12.6172 52.9735 13.3751 53.0009 13.8985 53.0009C14.461 53.0009 15.0782 52.9735 15.7501 52.9188C16.5235 53.8641 17.2501 54.786 17.9297 55.6844C18.6172 56.5751 19.3282 57.4735 20.0626 58.3798L24.0704 63.3016C25.5157 65.0673 26.5587 66.2938 27.1993 66.9813V59.4579C27.1993 56.3094 27.1407 54.5907 27.0235 54.3016C26.9141 54.0048 26.4649 53.8173 25.6758 53.7391L24.7969 53.6571V52.9188C26.0547 52.9735 27.0313 53.0009 27.7266 53.0009C28.4532 53.0009 29.3907 52.9735 30.5391 52.9188V53.6571H29.6368C28.9102 53.6571 28.4922 53.8993 28.3829 54.3837C28.3126 54.704 28.2774 56.4149 28.2774 59.5165V64.8016C28.2774 66.2235 28.3399 67.9227 28.4649 69.8993C27.4024 69.7352 26.7852 69.6141 26.6133 69.536C26.4415 69.4657 26.2774 69.3446 26.1212 69.1727C25.254 68.2118 24.3438 67.1454 23.3907 65.9735L14.9649 55.5673ZM39.6446 53.9852C39.5587 55.1571 39.5157 56.3915 39.5157 57.6884V64.368C39.5157 66.8524 39.5782 68.2235 39.7032 68.4813C39.8282 68.7313 40.2735 68.8563 41.0391 68.8563H41.918V69.5946C40.5352 69.5399 39.3633 69.5126 38.4024 69.5126C37.4337 69.5126 36.2696 69.5399 34.9102 69.5946V68.8563H35.8946C36.4102 68.8563 36.7462 68.7899 36.9024 68.6571C37.0587 68.5165 37.1563 68.2469 37.1954 67.8485C37.2735 66.9344 37.3126 65.7548 37.3126 64.3094V57.618C37.3126 56.2977 37.2852 55.0868 37.2305 53.9852H36.0352C34.1055 53.9852 33.043 54.0321 32.8477 54.1259C32.6524 54.2118 32.5235 54.5594 32.461 55.1688L32.2969 56.7391H31.5587L31.5821 55.3446C31.5821 54.7821 31.5352 53.9735 31.4415 52.9188C35.6602 52.9735 38.1407 53.0009 38.8829 53.0009L45.3633 52.9188C45.2149 54.2391 45.129 55.5126 45.1055 56.7391H44.379L44.2618 55.204C44.2149 54.6727 44.1485 54.3602 44.0626 54.2665C43.9766 54.1649 43.7852 54.1024 43.4883 54.079C42.629 54.0165 41.6524 53.9852 40.5587 53.9852H39.6446ZM51.0821 61.6376V64.5087L51.0938 66.161C51.0938 67.1923 51.1055 67.9462 51.129 68.4227C52.2696 68.5087 53.4922 68.5516 54.7969 68.5516C55.6719 68.5516 56.4063 68.5126 57.0001 68.4344C57.3829 68.3876 57.7891 68.286 58.2188 68.1298C58.4141 67.4423 58.6133 66.5829 58.8165 65.5516H59.6016C59.3907 67.2626 59.2852 68.4032 59.2852 68.9735L59.3087 69.5009C58.4102 69.5868 57.5274 69.6298 56.6602 69.6298L54.8204 69.5946C52.7891 69.5399 51.2969 69.5126 50.3438 69.5126C49.4297 69.5126 48.2149 69.5399 46.6993 69.5946V68.8563H47.0626C47.7422 68.8563 48.168 68.7899 48.3399 68.6571C48.5196 68.5243 48.6368 68.2118 48.6915 67.7196C48.754 67.2274 48.7852 66.1415 48.7852 64.4618V58.0282C48.7852 56.9735 48.7579 56.1102 48.7032 55.4384C48.6563 54.7665 48.6016 54.368 48.5391 54.243C48.4844 54.1102 48.4024 54.0087 48.293 53.9384C48.1837 53.868 47.8477 53.8055 47.2852 53.7509L46.3829 53.6571V52.9305H47.6485L48.8907 52.9657C49.586 52.9891 50.1133 53.0009 50.4727 53.0009L54.9727 52.9423L57.1055 52.9305C57.8321 52.9227 58.5665 52.954 59.3087 53.0243C59.0118 53.9462 58.8477 55.1454 58.8165 56.6219H58.0196C58.0196 55.7626 57.9766 55.0477 57.8907 54.4774C56.9688 54.1337 55.836 53.9618 54.4922 53.9618C53.4219 53.9618 52.3008 54.0087 51.129 54.1024C51.1368 54.8368 51.129 55.5712 51.1055 56.3055L51.0821 58.1102V60.4891C51.8555 60.536 52.5391 60.5594 53.1329 60.5594C54.9922 60.5594 56.043 60.4969 56.2852 60.3719C56.5352 60.2391 56.6602 59.8368 56.6602 59.1649V58.4032H57.4571C57.4024 59.5829 57.3751 60.5243 57.3751 61.2274C57.3751 61.9696 57.4024 62.8446 57.4571 63.8524H56.6602V63.1727C56.6602 62.4227 56.5118 61.9657 56.2149 61.8016C55.9258 61.6298 54.8946 61.5438 53.1212 61.5438C52.4649 61.5438 51.7852 61.5751 51.0821 61.6376ZM69.6797 61.1337C70.4454 62.2352 71.3946 63.5165 72.5274 64.9774L74.7774 67.8954C75.1758 68.3954 75.4415 68.6805 75.5743 68.7509C75.7071 68.8212 75.8438 68.8563 75.9844 68.8563H76.2891V69.5946C75.6407 69.5399 75.0743 69.5126 74.5899 69.5126C74.1446 69.5126 73.6758 69.5399 73.1837 69.5946L69.0352 63.993C68.2618 62.9618 67.4337 61.954 66.5508 60.9696L66.668 60.5712C67.1212 60.6102 67.4571 60.6298 67.6758 60.6298C68.9805 60.6298 70.0001 60.2938 70.7344 59.6219C71.4766 58.9501 71.8477 58.0516 71.8477 56.9266C71.8477 55.9188 71.5352 55.1337 70.9102 54.5712C70.2852 54.0009 69.3829 53.7157 68.2032 53.7157C67.3829 53.7157 66.5587 53.868 65.7305 54.1727C65.6368 55.4149 65.5899 56.743 65.5899 58.1571V63.8173C65.5899 66.5751 65.6563 68.1063 65.7891 68.411C65.9219 68.7079 66.3516 68.8563 67.0782 68.8563H67.9922V69.5946C66.6954 69.5399 65.6212 69.5126 64.7696 69.5126C64.0977 69.5126 62.8829 69.5399 61.1251 69.5946V68.8563H62.004C62.6758 68.8563 63.0743 68.7118 63.1993 68.4227C63.3243 68.1259 63.3868 66.5829 63.3868 63.7938V58.1571C63.3868 55.7352 63.3126 54.3798 63.1641 54.0907C63.0235 53.8016 62.5547 53.6571 61.7579 53.6571H61.1251V52.9071C62.5782 52.9696 63.6876 53.0009 64.4532 53.0009C64.9688 53.0009 65.711 52.9813 66.6797 52.9423C67.8047 52.9032 68.6133 52.8837 69.1055 52.8837C70.4571 52.8837 71.4805 53.0282 72.1758 53.3173C72.879 53.5985 73.4102 54.0087 73.7696 54.5477C74.1368 55.0868 74.3204 55.7313 74.3204 56.4813C74.3204 57.5829 73.9219 58.5555 73.1251 59.3993C72.336 60.243 71.1876 60.8212 69.6797 61.1337ZM88.7579 63.9696H81.9844L81.1876 65.8563C80.6641 67.1063 80.4024 67.8719 80.4024 68.1532C80.4024 68.3329 80.4493 68.4618 80.543 68.5399C80.6446 68.618 80.8946 68.6805 81.293 68.7274L82.418 68.8563V69.5946C81.668 69.5399 80.8243 69.5126 79.8868 69.5126C78.7618 69.5126 77.7735 69.5399 76.9219 69.5946V68.8563L77.2735 68.8446C77.8204 68.829 78.1719 68.7743 78.3282 68.6805C78.4922 68.579 78.6641 68.3368 78.8438 67.954C79.3985 66.829 79.9649 65.6141 80.543 64.3094L83.7657 57.0087C84.6251 55.0712 85.211 53.6649 85.5235 52.7899H86.3204L92.2501 66.5829C92.6485 67.5204 92.9141 68.0868 93.0469 68.2821C93.1797 68.4696 93.3321 68.6063 93.504 68.6923C93.6758 68.7704 94.0626 68.8251 94.6641 68.8563V69.5946C93.6485 69.5399 92.6797 69.5126 91.7579 69.5126C90.8985 69.5126 89.754 69.5399 88.3243 69.5946V68.8563L89.4844 68.786C89.8985 68.7548 90.1446 68.7118 90.2227 68.6571C90.3399 68.5712 90.3985 68.4618 90.3985 68.329C90.3985 68.1884 90.2813 67.8212 90.0469 67.2274L88.7579 63.9696ZM82.418 63.0087H88.3243L85.3712 55.954L82.418 63.0087ZM100.348 68.4462C101.113 68.4852 101.859 68.5048 102.586 68.5048C104.055 68.5048 105.203 68.4657 106.031 68.3876C106.609 68.3251 107.207 68.2118 107.824 68.0477L108.527 65.2938H109.289C109.094 66.7704 108.941 68.1493 108.832 69.4305C108.129 69.5477 107.168 69.6063 105.949 69.6063L100.371 69.5126C99.6212 69.5126 98.4532 69.5555 96.8672 69.6415V69.0204C97.4922 68.7469 97.8594 68.454 97.9688 68.1415C98.086 67.829 98.1446 66.5907 98.1446 64.4266V57.9813C98.1446 55.6376 98.086 54.3329 97.9688 54.0673C97.8594 53.7938 97.543 53.6571 97.0196 53.6571H95.7422V52.9188C97.6016 52.9735 98.836 53.0009 99.4454 53.0009C100.258 53.0009 101.359 52.9735 102.75 52.9188V53.6571H101.297C100.883 53.6571 100.621 53.7782 100.512 54.0204C100.402 54.2548 100.348 55.243 100.348 56.9852V64.4501L100.383 67.7548L100.348 68.4462ZM110.531 68.8563H111.27C111.996 68.8563 112.43 68.6805 112.57 68.329C112.719 67.9774 112.793 66.2938 112.793 63.2782V59.3055C112.793 56.1805 112.731 54.4579 112.606 54.1376C112.481 53.8173 112.106 53.6571 111.481 53.6571H110.531V52.9188C111.828 52.9735 113.109 53.0009 114.375 53.0009C115.43 53.0009 116.387 52.9735 117.246 52.9188V53.6571H116.344C115.789 53.6571 115.441 53.7235 115.301 53.8563C115.16 53.9891 115.078 54.3251 115.055 54.8641C115.016 55.7001 114.996 57.1884 114.996 59.329V63.3719C114.996 66.411 115.063 68.0868 115.195 68.3993C115.328 68.704 115.754 68.8563 116.473 68.8563H117.246V69.5946C116.285 69.5399 115.238 69.5126 114.106 69.5126C112.785 69.5126 111.594 69.5399 110.531 69.5946V68.8563ZM134.293 62.1219H125.262L124.199 64.6376C123.501 66.3042 123.152 67.3251 123.152 67.7001C123.152 67.9397 123.215 68.1115 123.34 68.2157C123.475 68.3199 123.809 68.4032 124.34 68.4657L125.84 68.6376V69.6219C124.84 69.549 123.715 69.5126 122.465 69.5126C120.965 69.5126 119.647 69.549 118.512 69.6219V68.6376L118.981 68.6219C119.71 68.6011 120.178 68.5282 120.387 68.4032C120.606 68.2678 120.835 67.9449 121.074 67.4344C121.814 65.9344 122.569 64.3147 123.34 62.5751L127.637 52.8407C128.783 50.2574 129.564 48.3824 129.981 47.2157H131.043L138.949 65.6063C139.481 66.8563 139.835 67.6115 140.012 67.8719C140.189 68.1219 140.392 68.3042 140.621 68.4188C140.85 68.523 141.366 68.5959 142.168 68.6376V69.6219C140.814 69.549 139.522 69.5126 138.293 69.5126C137.147 69.5126 135.621 69.549 133.715 69.6219V68.6376L135.262 68.5438C135.814 68.5022 136.142 68.4449 136.246 68.3719C136.402 68.2574 136.481 68.1115 136.481 67.9344C136.481 67.7469 136.324 67.2574 136.012 66.4657L134.293 62.1219ZM125.84 60.8407H133.715L129.777 51.4344L125.84 60.8407Z" fill="#181247"/>
<path d="M79.1968 41.8379C86.0988 28.4796 76.7822 23.3874 71.2611 22.5111C90.3665 18.0812 94.8429 33.3179 94.6929 41.49L79.1968 41.8379Z" fill="#181247"/>
<path d="M56.0037 26.1838C64.0087 38.9118 73.1256 33.4701 76.6835 29.1583C70.8009 47.8675 55.4012 43.989 48.4366 39.7111L56.0037 26.1838Z" fill="#181247"/>
<path d="M81.2783 13.725C66.2586 14.4231 66.5042 25.0377 68.5045 30.2577C55.119 15.9235 66.0791 4.43125 73.2324 0.476908L81.2783 13.725Z" fill="#181247"/>
</svg>
